<svg xmlns="http://www.w3.org/2000/svg" xmlns:xlink="http://www.w3.org/1999/xlink"><symbol id="icon-map-marker" viewBox="0 0 33.468 33.468"><path d="M16.734 0C9.375 0 3.408 5.966 3.408 13.325c0 11.076 13.326 20.143 13.326 20.143S30.06 23.734 30.06 13.324C30.06 5.965 24.093 0 16.734 0zm0 19.676a6.353 6.353 0 1 1 6.352-6.351 6.352 6.352 0 0 1-6.352 6.351z"/></symbol><symbol id="icon-motorbike-helmet" viewBox="0 0 462.792 462.792"><path d="M112.893 259.1c28.362 4.584 51.671 6.906 69.276 6.907h.007c21.373 0 29.601-3.364 32.737-6.187a5.286 5.286 0 0 0 1.679-3.038l9.962-57.646a5.314 5.314 0 0 0-.631-3.549c-1.264-2.193-4.223-7.329-34.466-12.53-18.021-3.099-40.844-5.383-64.265-6.431a5.303 5.303 0 0 0-4.978 2.923c-6.441 12.87-16.791 39.698-13.757 74.775a5.3 5.3 0 0 0 4.436 4.776z"/><path d="M448.068 271.461c5.13-20.027 46.247-191.09-36.521-222.229-32.525-11.736-69.728-17.687-110.57-17.687-76.192 0-152.922 20.852-203.873 38.345C41.98 88.816 4.186 108.053 3.81 108.245a7.002 7.002 0 0 0 1.023 12.888l99.698 32.464c.603.196 1.229.31 1.863.337 77.142 3.354 132.381 13.574 144.16 26.672 2.132 2.372 3.128 4.927 2.964 7.597l-.059.465-14.412 83.431a7.135 7.135 0 0 0-.067.5c-.107 1.086-.679 3.258-3.293 5.603-4.915 4.407-17.377 9.663-48.85 9.663-24.93 0-58.25-3.344-99.035-9.938a7.004 7.004 0 0 0-7.448 3.925L48.552 349.3a6.987 6.987 0 0 0-.653 3.449c.287 4.321 5.952 40.587 9.938 50.083a7.004 7.004 0 0 0 2.795 3.258l39.337 24.125a7.023 7.023 0 0 0 6.018.623l343.757-123.035a6.999 6.999 0 0 0 4.48-8.08l-6.156-28.262z"/></symbol><symbol id="icon-motorcycle" viewBox="0 0 467.168 467.168"><path d="M76.849 210.531C34.406 210.531 0 244.937 0 287.388c0 42.438 34.406 76.847 76.849 76.847 30.989 0 57.635-18.387 69.789-44.819l18.258 14.078s134.168.958 141.538-3.206c0 0-16.65-45.469 4.484-64.688 2.225-2.024 5.021-4.332 8.096-6.777-3.543 8.829-5.534 18.45-5.534 28.558 0 42.446 34.403 76.846 76.846 76.846 42.443 0 76.843-34.415 76.843-76.846 0-42.451-34.408-76.849-76.843-76.849-.697 0-1.362.088-2.056.102 5.551-3.603 9.093-5.865 9.093-5.865l-5.763-5.127s16.651-3.837 12.816-12.167c-3.848-8.33-44.19-58.28-44.19-58.28s7.146-15.373-7.634-26.261l-7.098 15.371s-18.093-12.489-25.295-10.084c-7.205 2.398-18.005 3.603-21.379 8.884l-3.358 3.124s-.95 5.528 4.561 13.693c0 0 55.482 17.05 58.119 29.537 0 0 3.848 7.933-12.728 9.844l-3.354 4.328-8.896.479-16.082-36.748s-15.381 4.082-23.299 10.323l1.201 6.24s-64.599-43.943-125.362 21.137c0 0-44.909 12.966-76.37-26.897 0 0-.479-12.968-76.367-10.565l5.286 5.524s-5.286.479-7.444 3.841c-2.158 3.358 1.2 6.961 18.494 6.961 0 0 39.153 44.668 69.17 42.032l42.743 20.656 18.975 32.42s.034 2.785.23 7.045c-4.404.938-9.341 1.979-14.579 3.09-10.155-30.567-38.928-52.638-72.911-52.638zm313.476 23.55c29.395 0 53.299 23.912 53.299 53.299 0 29.39-23.912 53.294-53.299 53.294-29.394 0-53.294-23.912-53.294-53.294 0-29.387 23.901-53.299 53.294-53.299zM76.849 340.683c-29.387 0-53.299-23.913-53.299-53.295 0-29.395 23.912-53.299 53.299-53.299 22.592 0 41.896 14.154 49.636 34.039-28.26 6.011-56.31 11.99-56.31 11.99l3.619 19.933 55.339-2.444c-4.768 24.509-26.388 43.076-52.284 43.076zm92.303-44.848c1.571 5.334 3.619 9.574 6.312 11.394l-24.696.966a77.72 77.72 0 0 0 2.338-11.662l16.046-.698z"/></symbol><symbol id="icon-phone"><path fill="#ff0" d="M17.321 24.333h-1.115c-4.904-.58-8.497-2.857-11.11-5.772C2.473 15.637.402 11.875 0 6.817V5.459c.091-.921.544-1.55 1.067-2.086.65-.666 1.63-1.522 2.522-1.553.659-.022 1.78.451 2.232 1.066.388.53.595 1.59.775 2.378.185.797.6 1.95.485 2.717-.176 1.196-1.764 1.703-2.231 2.572 1.551 3.721 4.089 6.456 7.472 8.345.847-.465 1.595-1.864 2.767-1.892.428-.012.972.209 1.406.34.477.143.891.326 1.311.484.705.266 1.957.621 2.378 1.213.433.61.681 1.608.581 2.231-.194 1.234-2.227 2.603-3.444 3.059zM12.529 1.528c5.949 0 10.771 4.822 10.771 10.771h1.529C24.829 5.507 19.323 0 12.529 0v1.528z"/><path fill="#ff0" d="M12.529 9.327v1.552a1.42 1.42 0 0 1 1.421 1.42h1.553a2.973 2.973 0 0 0-2.974-2.972zm0-3.081a6.054 6.054 0 0 1 6.056 6.054h1.588a7.642 7.642 0 0 0-7.644-7.641v1.587z"/></symbol><symbol id="icon-road" viewBox="0 0 455.416 455.416"><path d="M235.968 52.552c.39 9.688.778 19.376 1.169 29.064h-18.855l1.167-29.064h-45.884c-30.747 116.771-61.499 233.539-92.245 350.312h124.055l1.168-29.064h42.332c.392 9.688.78 19.375 1.168 29.064h124.055c-30.747-116.771-61.498-233.54-92.245-350.312h-45.885zm-19.437 72.581c7.451 0 14.902-.004 22.354-.002 1.082 26.939 2.163 53.88 3.247 80.818h-28.848c1.086-26.937 2.166-53.877 3.247-80.816zm-8.241 205.149c1.081-26.938 2.165-53.877 3.247-80.815l32.342-.002c1.083 26.938 2.166 53.879 3.247 80.817H208.29zm103.639-277.73h-15.621c38.961 116.771 77.913 233.541 116.876 350.312h42.232c-47.827-116.773-95.657-233.541-143.487-350.312zm-168.442 0C95.657 169.324 47.826 286.091 0 402.864h42.233c38.958-116.771 77.915-233.54 116.875-350.312h-15.621z"/></symbol></svg>