<svg xmlns="http://www.w3.org/2000/svg" viewBox="0 0 413.27 413.27"><path d="M34.827 188.617l33.72 13.324 66.072-26.09c-.657-8.488-2.592-22.88-8.263-37.472-11.889-30.581-34.07-46.745-64.149-46.745C27.901 91.635 0 114.559 0 142.74c0 20.114 14.217 37.541 34.827 45.877zm27.38-76.03c21.289 0 35.888 10.92 44.62 33.385 3.798 9.782 5.588 19.742 6.433 26.917H62.207c-22.748 0-41.255-13.523-41.255-30.149-.001-16.625 18.507-30.153 41.255-30.153zm90.079 122.441l126.881 50.135c.349.121.675.212 1.016.314v-29.675l-83.594-44.201-44.303 23.427z"/><path d="M35.063 224.552l-.237.095v.005C14.217 232.986 0 250.416 0 270.531c0 28.178 27.901 51.103 62.207 51.103 30.079 0 52.26-16.165 64.149-46.747 6.444-16.587 8.062-32.919 8.468-40.636h.252l145.106-76.73v-29.677c-.341.106-.667.197-1.016.318.001.001-243.966 96.331-244.103 96.39zm71.763 42.744c-8.731 22.465-23.331 33.386-44.62 33.386-22.748 0-41.255-13.528-41.255-30.15 0-16.632 18.508-30.154 41.255-30.154h51.052c-.844 7.176-2.634 17.136-6.432 26.918zm28.572-52.368a8.296 8.296 0 0 1 0-16.59c4.574 0 8.291 3.715 8.291 8.296a8.294 8.294 0 0 1-8.291 8.294zm114.431-13.548h23.349v10.507h-23.349zm46.697 0h23.349v10.507h-23.349zm46.698 0h23.349v10.507h-23.349zm46.697 0h23.349v10.507h-23.349z"/><path d="M215.918 201.38h-12.786v10.508h23.348V201.38z"/></svg>