<svg xmlns="http://www.w3.org/2000/svg" viewBox="0 0 462.792 462.792"><path d="M112.893 259.1c28.362 4.584 51.671 6.906 69.276 6.907h.007c21.373 0 29.601-3.364 32.737-6.187a5.286 5.286 0 0 0 1.679-3.038l9.962-57.646a5.314 5.314 0 0 0-.631-3.549c-1.264-2.193-4.223-7.329-34.466-12.53-18.021-3.099-40.844-5.383-64.265-6.431a5.303 5.303 0 0 0-4.978 2.923c-6.441 12.87-16.791 39.698-13.757 74.775a5.3 5.3 0 0 0 4.436 4.776z"/><path d="M448.068 271.461c5.13-20.027 46.247-191.09-36.521-222.229-32.525-11.736-69.728-17.687-110.57-17.687-76.192 0-152.922 20.852-203.873 38.345C41.98 88.816 4.186 108.053 3.81 108.245a7.002 7.002 0 0 0 1.023 12.888l99.698 32.464c.603.196 1.229.31 1.863.337 77.142 3.354 132.381 13.574 144.16 26.672 2.132 2.372 3.128 4.927 2.964 7.597l-.059.465-14.412 83.431a7.135 7.135 0 0 0-.067.5c-.107 1.086-.679 3.258-3.293 5.603-4.915 4.407-17.377 9.663-48.85 9.663-24.93 0-58.25-3.344-99.035-9.938a7.004 7.004 0 0 0-7.448 3.925L48.552 349.3a6.987 6.987 0 0 0-.653 3.449c.287 4.321 5.952 40.587 9.938 50.083a7.004 7.004 0 0 0 2.795 3.258l39.337 24.125a7.023 7.023 0 0 0 6.018.623l343.757-123.035a6.999 6.999 0 0 0 4.48-8.08l-6.156-28.262z"/></svg>